<svg width="40" height="40" viewBox="0 0 40 40" fill="none" xmlns="http://www.w3.org/2000/svg">
<path d="M19.9999 15.8667C19.1824 15.8667 18.3833 16.1091 17.7036 16.5633C17.0238 17.0174 16.4941 17.663 16.1812 18.4182C15.8684 19.1735 15.7865 20.0046 15.946 20.8064C16.1055 21.6082 16.4992 22.3446 17.0772 22.9227C17.6553 23.5008 18.3918 23.8944 19.1935 24.0539C19.9953 24.2134 20.8264 24.1315 21.5817 23.8187C22.3369 23.5059 22.9825 22.9761 23.4367 22.2964C23.8908 21.6166 24.1333 20.8175 24.1333 20C24.1333 19.4572 24.0263 18.9197 23.8186 18.4182C23.6109 17.9168 23.3064 17.4611 22.9226 17.0773C22.5388 16.6935 22.0832 16.389 21.5817 16.1813C21.0802 15.9736 20.5427 15.8667 19.9999 15.8667ZM36.5499 11.7833C36.5412 10.4963 36.3041 9.22095 35.8499 8.01667C35.5154 7.13543 34.9978 6.33515 34.3313 5.66864C33.6648 5.00213 32.8645 4.48453 31.9833 4.15C30.779 3.69577 29.5037 3.45877 28.2166 3.45C26.0666 3.33333 25.4333 3.33333 19.9999 3.33333C14.5666 3.33333 13.9333 3.33333 11.7833 3.45C10.4962 3.45877 9.22087 3.69577 8.01659 4.15C7.13535 4.48453 6.33507 5.00213 5.66856 5.66864C5.00205 6.33515 4.48445 7.13543 4.14992 8.01667C3.69569 9.22095 3.45869 10.4963 3.44992 11.7833C3.33325 13.9333 3.33325 14.5667 3.33325 20C3.33325 25.4333 3.33325 26.0667 3.44992 28.2167C3.46786 29.5083 3.70454 30.7875 4.14992 32C4.48297 32.8772 5.00013 33.6728 5.66659 34.3333C6.33024 35.0038 7.13223 35.5214 8.01659 35.85C9.22087 36.3042 10.4962 36.5412 11.7833 36.55C13.9333 36.6667 14.5666 36.6667 19.9999 36.6667C25.4333 36.6667 26.0666 36.6667 28.2166 36.55C29.5037 36.5412 30.779 36.3042 31.9833 35.85C32.8676 35.5214 33.6696 35.0038 34.3333 34.3333C34.9997 33.6728 35.5169 32.8772 35.8499 32C36.3037 30.7898 36.5407 29.5091 36.5499 28.2167C36.6666 26.0667 36.6666 25.4333 36.6666 20C36.6666 14.5667 36.6666 13.9333 36.5499 11.7833ZM32.3166 25.1167C32.2631 26.1452 32.0436 27.1583 31.6666 28.1167C31.343 28.9161 30.862 29.6424 30.2522 30.2523C29.6423 30.8621 28.9161 31.3431 28.1166 31.6667C27.1491 32.0227 26.1304 32.2196 25.0999 32.25H14.8999C13.8695 32.2196 12.8507 32.0227 11.8833 31.6667C11.0568 31.3595 10.3104 30.8695 9.69992 30.2333C9.09603 29.6354 8.62966 28.9131 8.33325 28.1167C7.97585 27.1502 7.78426 26.1303 7.76658 25.1V14.9C7.78426 13.8697 7.97585 12.8498 8.33325 11.8833C8.64039 11.0568 9.13038 10.3105 9.76659 9.7C10.3671 9.09937 11.0887 8.63349 11.8833 8.33333C12.8507 7.97734 13.8695 7.78035 14.8999 7.75H25.0999C26.1304 7.78035 27.1491 7.97734 28.1166 8.33333C28.9431 8.64047 29.6895 9.13046 30.2999 9.76667C30.9038 10.3646 31.3702 11.0869 31.6666 11.8833C32.0226 12.8508 32.2196 13.8695 32.2499 14.9V20C32.2499 23.4333 32.3666 23.7833 32.3166 25.1V25.1167ZM29.6499 12.7167C29.4515 12.1783 29.1386 11.6894 28.7329 11.2837C28.3272 10.878 27.8383 10.5651 27.2999 10.3667C26.5607 10.1104 25.7822 9.98632 24.9999 10H14.9999C14.2137 10.0077 13.435 10.1544 12.6999 10.4333C12.1698 10.6228 11.6861 10.9229 11.2809 11.3137C10.8757 11.7045 10.5584 12.1771 10.3499 12.7C10.1079 13.4423 9.98963 14.2193 9.99992 15V25C10.0164 25.7853 10.1629 26.5625 10.4333 27.3C10.6317 27.8384 10.9446 28.3273 11.3503 28.733C11.756 29.1387 12.2449 29.4516 12.7833 29.65C13.4944 29.9115 14.2427 30.0578 14.9999 30.0833H24.9999C25.7861 30.0756 26.5648 29.9289 27.2999 29.65C27.8383 29.4516 28.3272 29.1387 28.7329 28.733C29.1386 28.3273 29.4515 27.8384 29.6499 27.3C29.9289 26.5649 30.0756 25.7862 30.0833 25V15C30.0837 14.213 29.9368 13.4329 29.6499 12.7V12.7167ZM19.9999 26.3667C19.1646 26.3667 18.3375 26.2019 17.566 25.8817C16.7945 25.5616 16.0938 25.0923 15.5039 24.5009C14.914 23.9095 14.4466 23.2075 14.1285 22.4352C13.8104 21.6628 13.6477 20.8353 13.6499 20C13.6499 18.7401 14.0237 17.5085 14.7241 16.4611C15.4244 15.4138 16.4197 14.5978 17.584 14.1164C18.7484 13.635 20.0293 13.5099 21.2648 13.7569C22.5003 14.0039 23.6347 14.6119 24.5244 15.504C25.4141 16.3961 26.0192 17.5321 26.2629 18.7682C26.5067 20.0043 26.3783 21.2849 25.8938 22.448C25.4094 23.611 24.5908 24.6042 23.5416 25.3018C22.4924 25.9994 21.2598 26.37 19.9999 26.3667ZM26.6666 14.8833C26.2982 14.8443 25.9572 14.6704 25.7094 14.3949C25.4616 14.1195 25.3245 13.7622 25.3245 13.3917C25.3245 13.0212 25.4616 12.6638 25.7094 12.3884C25.9572 12.113 26.2982 11.939 26.6666 11.9C27.035 11.939 27.376 12.113 27.6238 12.3884C27.8716 12.6638 28.0087 13.0212 28.0087 13.3917C28.0087 13.7622 27.8716 14.1195 27.6238 14.3949C27.376 14.6704 27.035 14.8443 26.6666 14.8833Z" fill="white"/>
</svg>
