<svg width="40" height="40" viewBox="0 0 40 40" fill="none" xmlns="http://www.w3.org/2000/svg">
<path d="M19.9999 16.6667C21.768 16.6667 23.4637 15.9643 24.714 14.7141C25.9642 13.4638 26.6666 11.7681 26.6666 10C26.6666 8.2319 25.9642 6.53621 24.714 5.28596C23.4637 4.03572 21.768 3.33334 19.9999 3.33334C18.2318 3.33334 16.5361 4.03572 15.2859 5.28596C14.0356 6.53621 13.3333 8.2319 13.3333 10C13.3333 11.7681 14.0356 13.4638 15.2859 14.7141C16.5361 15.9643 18.2318 16.6667 19.9999 16.6667ZM9.16659 21.6667C10.2717 21.6667 11.3315 21.2277 12.1129 20.4463C12.8943 19.6649 13.3333 18.6051 13.3333 17.5C13.3333 16.3949 12.8943 15.3351 12.1129 14.5537C11.3315 13.7723 10.2717 13.3333 9.16659 13.3333C8.06152 13.3333 7.00171 13.7723 6.22031 14.5537C5.43891 15.3351 4.99992 16.3949 4.99992 17.5C4.99992 18.6051 5.43891 19.6649 6.22031 20.4463C7.00171 21.2277 8.06152 21.6667 9.16659 21.6667ZM34.9999 17.5C34.9999 18.6051 34.5609 19.6649 33.7795 20.4463C32.9981 21.2277 31.9383 21.6667 30.8333 21.6667C29.7282 21.6667 28.6684 21.2277 27.887 20.4463C27.1056 19.6649 26.6666 18.6051 26.6666 17.5C26.6666 16.3949 27.1056 15.3351 27.887 14.5537C28.6684 13.7723 29.7282 13.3333 30.8333 13.3333C31.9383 13.3333 32.9981 13.7723 33.7795 14.5537C34.5609 15.3351 34.9999 16.3949 34.9999 17.5ZM19.9999 18.3333C22.2101 18.3333 24.3297 19.2113 25.8925 20.7741C27.4553 22.3369 28.3333 24.4565 28.3333 26.6667V36.6667H11.6666V26.6667C11.6666 24.4565 12.5446 22.3369 14.1074 20.7741C15.6702 19.2113 17.7898 18.3333 19.9999 18.3333ZM8.33325 26.6667C8.33325 25.5117 8.49992 24.3967 8.81325 23.3433L8.52992 23.3667C7.10138 23.5235 5.78102 24.2022 4.82202 25.2725C3.86302 26.3429 3.33288 27.7296 3.33325 29.1667V36.6667H8.33325V26.6667ZM36.6666 36.6667V29.1667C36.6668 27.6806 36.0998 26.2505 35.0814 25.1683C34.063 24.0861 32.6699 23.4334 31.1866 23.3433C31.4983 24.3967 31.6666 25.5117 31.6666 26.6667V36.6667H36.6666Z" fill="white"/>
</svg>
